<?xml version="1.0" encoding="UTF-8"?>
<svg id="Capa_1" data-name="Capa 1" xmlns="http://www.w3.org/2000/svg" version="1.1" viewBox="0 0 1367.12 1887.01">
  <defs>
    <style>
      .cls-1 {
        fill: none;
        stroke: #fff;
        stroke-miterlimit: 10;
        stroke-width: .5px;
      }
    </style>
  </defs>
  <path class="cls-1" d="M1355.15,1340.34c-32.22-3.95-64.35-9.1-96.68-11.37-16.88-1.18-32.11-4.51-46.78-12.65-18.63-10.34-37.93-18.44-59.77-20.31-27.81-2.37-55.65-5.51-83.15-10.22-16.99-2.91-33.5-8.96-49.99-14.32-36.63-11.91-61.65-37.54-80.09-70.2-3.67-6.49-5.46-14.36-6.69-21.83-2.05-12.35-6.95-23.2-16.66-30.7-10.88-8.4-22.08-17.38-34.62-22.41-38.27-15.35-67.76-41.62-94.39-71.8-32.66-37.02-59.31-77.36-73.46-125.6-15.04-51.3-50.17-84.79-98.96-105.34-54.13-22.81-110.4-38.92-167.13-53.07-45.34-11.3-83.85-31.98-114.02-67.83-21.75-25.85-50.22-43.18-78.5-60.41-41.62-25.36-74.64-60.06-106.26-96.2-20.27-23.17-20.88-44.19-3.52-69.48,21.83-31.81,49.8-57.22,83.33-76.33,22.39-12.75,47.63-11.98,72.13-14.99,32.19-3.95,64.4-7.99,96.4-13.24,21.97-3.61,37.85-15.97,47.04-37.21,3.72-8.61,10.02-16.71,16.87-23.23,14.72-14,19.02-30.58,16.65-50.04-3.44-28.34-14.71-53.91-27.38-78.95-5.02-9.91-14.61-15.88-25.22-15.36-16.83.82-34.2,1.99-50.18,6.85-40.64,12.38-76.91,33.9-111.71,58.08-45.56,31.66-95.43,53.06-150.59,61.22-3.81.56-7.68.83-11.53.91-13.12.26-19.34-3.71-22.09-16.68-3.39-16.03-5.32-32.38-7.89-48.59-3.95-24.92-13.42-46.52-33.58-63.24-17.02-14.11-23.33-34.67-25.95-55.69C6.65,77.23,4.19,44.13.78,11.15.38,7.35-1.62,3.71-2.88,0c-1.2.35-2.4.71-3.59,1.06,1.24,13.95,2.2,27.94,3.77,41.85C.39,70.4,2.79,98.02,7.43,125.26c3.42,20.09,13.88,37.03,30.08,50.35,17.21,14.16,23.1,34.37,26.58,55.35,2.32,13.97,3.64,28.11,6.1,42.05,3.77,21.39,12.99,28.9,34.51,27.38,40.15-2.83,77.61-15.93,112.7-34.52,28.91-15.32,55.8-34.44,84.02-51.12,31.09-18.38,63.25-34.64,99.36-40.85,6.59-1.13,13.5-1.36,20.17-.85,11.67.9,20.55,6.28,25.62,17.56,10.7,23.81,21.55,47.44,24.08,73.97,1.57,16.5-2.92,29.83-14.5,42.11-8.91,9.44-16.15,20.81-22.45,32.25-6.5,11.79-15.1,20.73-27.97,23.31-28.93,5.79-58.04,10.83-87.23,15.18-16.52,2.47-33.34,2.82-50,4.4-19.87,1.89-38.25,8.06-54.98,19.23-28.68,19.14-53.91,41.94-73.41,70.49-20.42,29.89-18.83,54.28,5.1,81.44,33.96,38.53,70.06,74.69,114.99,100.76,28.32,16.43,54.04,36.2,75.4,61.18,30.35,35.51,71.05,51.05,114.63,63.31,52.85,14.86,105.23,31.7,156.99,50,52.97,18.73,86.12,56.89,102.91,110.93,22.53,72.51,70.08,127.21,129.4,172.43,8.58,6.54,19.15,10.41,28.65,15.78,13.39,7.57,27.17,14.64,39.81,23.33,10.69,7.35,16.52,18.35,17.65,31.89.52,6.24,2.53,12.79,5.5,18.31,18.72,34.84,44.66,62.06,82.74,75.82,43.9,15.86,89.14,24.53,135.83,26.5,11.64.49,23.21,4.29,34.66,7.15,4.6,1.15,9.04,3.48,13.15,5.95,21.1,12.68,43.46,18.63,68.47,19.57,29.8,1.11,59.44,6.62,89.15,10.23v-5.8Z"/>
  <path class="cls-1" d="M1355.15,1307.47c-27.38-6.67-54.92-12.8-82.09-20.25-14.19-3.89-27.73-10.12-41.58-15.27-18.69-6.95-37.96-9.54-57.86-8.1-35.95,2.61-71.37-1.64-106.44-9.17-48.41-10.39-79.86-40.65-98.71-85.38-2-4.75-4.4-9.34-6.16-14.17-6.57-18.02-18.78-30.72-34.8-41.1-25.35-16.43-50.58-33.22-74.45-51.69-27.04-20.93-46.51-48.43-63.28-78.33-24.53-43.75-50.38-86.78-76.51-129.6-20.76-34.01-51.55-55.05-90.02-64.99-42.64-11.01-85-23.29-127.97-32.81-67.92-15.04-124.83-47.61-172.29-98.55-22.97-24.66-50.07-45.43-73.46-69.74-18.63-19.37-34.66-41.28-51.37-62.43-3.69-4.66-6.04-10.69-7.87-16.45-4-12.56-1.33-22.68,9.83-29.5,9.99-6.11,21.08-11.5,32.41-14.15,32.89-7.68,66.08-14.09,99.25-20.5,29.37-5.68,55.83,3.04,81.4,16.99,27.63,15.07,55.34,30.15,83.85,43.42,20.46,9.52,42.56,12.26,64.91,5.21,32.8-10.35,46.62-31.74,40.21-65.43-3.47-18.27-9.97-35.95-14.42-54.07-2.44-9.94-4.38-20.18-4.9-30.37-1.12-21.69-6.73-42.26-16.94-60.97-23.39-42.86-47.84-85.03-65.81-130.72-12.92-32.86-41.69-45.71-74.4-50.93-33.03-5.27-63.39,1.07-92.22,19.05-50.78,31.66-102.35,62.07-153.94,92.39-11.82,6.94-24.7,12.67-37.79,16.7-17.46,5.38-26.94-1.99-29.18-20.18-.39-3.19-1.29-6.49-.87-9.59,2.93-21.61-6.5-38.73-19.21-54.82-9.18-11.62-17.69-23.81-27.32-35.03-19.79-23.06-25.77-51.34-31.4-79.84-3.02-15.31-5.91-30.65-10.84-46.02-.25,1.23-.92,2.54-.69,3.67,5.4,26.13,9.57,52.63,16.89,78.22,4.23,14.78,12.37,28.87,20.88,41.88,11.26,17.19,24.75,32.92,37.02,49.46,8.3,11.18,12.88,23.59,11.58,37.91-.49,5.4-.04,10.98.67,16.39,2.32,17.65,13.22,26.38,30.34,21.69,13.78-3.77,27.46-9.48,39.79-16.7,54.69-32.05,108.47-65.65,163.36-97.32,42-24.24,85.15-21.88,126.72,1.76,9.01,5.12,16.55,14.39,22.27,23.34,7.22,11.28,13.05,23.8,17.4,36.49,8.96,26.16,22.71,49.57,37.26,72.82,19.35,30.91,33.01,63.77,33.93,101.28.29,11.91,5.41,23.73,8.52,35.53,3.03,11.51,6.95,22.83,9.37,34.46,8.24,39.62-13.36,66.74-54.09,68.98-20.2,1.11-39.13-3.78-56.85-12.55-22.75-11.26-45.38-22.92-67.13-35.97-34.04-20.42-69.16-27.41-108.18-16.69-24.76,6.8-50.52,9.91-75.65,15.47-9.96,2.2-19.93,5.57-29.04,10.12-22.97,11.5-28.95,28.33-15.31,49.92,13.15,20.82,28.92,40.1,44.66,59.13,8.34,10.09,19.13,18.13,28.7,27.22,20.29,19.27,41.36,37.82,60.58,58.1,47.7,50.33,105.71,80.58,173.14,95.29,42.97,9.37,85.24,21.96,127.8,33.18,35.92,9.46,63.85,30.21,83.32,61.57,23.58,37.98,48.54,75.37,68.63,115.17,27.49,54.48,66.95,96.31,118.2,128.06,11.22,6.95,22.16,14.34,33.44,21.18,12.59,7.64,21.24,18.29,26.94,31.83,5.12,12.14,10.63,24.16,16.71,35.85,19.46,37.44,50.21,60.41,91.19,69.79,33.74,7.73,67.94,11.89,102.53,9.63,27.64-1.8,53.53,3.36,79,13.82,34.86,14.33,70.87,25,108.32,30.25v-3.87Z"/>
  <path class="cls-1" d="M1355.15,1249.47c-11.5-1.24-23.13-1.76-34.47-3.84-54.26-9.98-109.08-6.69-163.74-8.25-24.87-.71-49.89-4.68-74.32-9.73-16.17-3.34-31.97-10.07-46.81-17.53-8.08-4.06-15.12-11.94-20.32-19.65-14.39-21.33-27.1-43.8-41.35-65.23-14.44-21.71-33.19-39.09-55.78-52.52-31.68-18.84-54.85-46.65-75.81-76.14-18.82-26.48-36.34-53.92-53.83-81.31-27.91-43.7-61.52-82.51-98.87-118.27-17.84-17.08-39-28-62.21-35.77-52.23-17.48-104.78-35.07-159.39-41.68-37.7-4.56-64.9-24.44-92.05-46.44-43.4-35.18-82.77-74.53-117.39-118.48-4.37-5.55-8.58-11.33-12.06-17.45-7.22-12.73-4.99-20.02,8.38-26.32,7.22-3.4,14.92-6.07,22.67-7.98,22.43-5.51,44.89-10.96,67.54-15.49,19.45-3.89,37.76.38,54.37,11.26,37.57,24.61,77.94,42.33,122.37,50.17,24.88,4.39,49.8,6.71,74.84,1.33,32.78-7.03,46.15-25,41.97-58.12-5.51-43.65-10.15-87.51-18.24-130.71-6.16-32.9-19.94-63.01-39.88-91.14-14.77-20.84-22.68-46.61-33.14-70.41-5.42-12.35-10.21-25.03-14.46-37.83-12.65-38.04-40.7-58.67-77.24-70.65-51.57-16.91-100.98-13.1-147.41,15.45-39.44,24.25-78.12,49.75-117.18,74.63-5.69,3.62-11.44,7.24-17.49,10.18-13.49,6.55-20.75,4.1-27.72-8.95-2.88-5.39-4.92-11.27-8.17-16.4-5.31-8.39-10.3-17.33-17.16-24.33C83.7,104,63.4,58.65,58.37,6.14c-.16-1.7-.69-3.36-1.05-5.04-.97.15-1.95.29-2.92.44,1.01,8.83,1.22,17.83,3.17,26.45,9.98,44.14,28.3,83.75,60.85,116.44,9.47,9.51,15.78,22.57,22.08,34.76,10.69,20.67,19.91,24.82,39.77,12.53,28.44-17.61,55.74-37.05,83.86-55.2,27.87-17.99,56.13-35.78,88.17-45.23,53.98-15.93,103.91-4.51,148.67,27.97,10.29,7.47,17.99,20.32,23.45,32.26,11.35,24.81,20.4,50.67,30.38,76.11,7.9,20.15,17.8,38.94,31.11,56.35,18.34,23.99,26.68,52.92,32.63,81.93,5.48,26.69,7.81,54.03,11.47,81.09,1.9,14.02,3.55,28.08,5.55,42.09,4.83,33.89-8.01,52.24-41.79,58.2-41.24,7.28-81-.94-119.36-15.02-21.87-8.03-43.5-18.24-62.92-31-27.75-18.25-56.25-22-87.41-13.72-18.93,5.03-37.9,9.88-56.76,15.15-5.21,1.45-10.31,3.69-15.09,6.25-13.54,7.24-15.9,15.06-8.95,28.51,1.62,3.14,3.41,6.24,5.54,9.05,46.49,61.27,101.16,113.92,164.15,158.18,19.07,13.4,40.64,14.52,61.94,18.67,55.69,10.84,110.03,26.59,163.57,45.37,26.77,9.39,46.95,27.56,66.19,47.16,37.6,38.31,69.74,80.79,97.63,126.71,23.42,38.56,48.62,76.03,81.61,107.34,9.29,8.81,19.25,17.44,30.24,23.84,28.65,16.7,50.05,40.1,67.21,67.92,10.48,16.99,20.92,34,31.26,51.08,6.73,11.12,15.99,18.62,28.1,23.85,39.32,16.96,80.01,26.32,122.95,24.68,64.24-2.45,128,2.36,191.47,12.05v-3.87Z"/>
</svg>